<svg id="visual" viewBox="0 0 900 600" width="900" height="600" xmlns="http://www.w3.org/2000/svg" xmlns:xlink="http://www.w3.org/1999/xlink" version="1.1"><g stroke-width="1" stroke-linejoin="bevel"><path d="M447 316L455 369L546.5 329Z" fill="#01335a" stroke="#000000"></path><path d="M455 369L567.5 427L546.5 329Z" fill="#01335a" stroke="#000000"></path><path d="M447 316L346.5 400L455 369Z" fill="#033f69" stroke="#000000"></path><path d="M432 516L562.5 504L567.5 427Z" fill="#054b78" stroke="#000000"></path><path d="M546.5 329L474 170L447 316Z" fill="#033f69" stroke="#000000"></path><path d="M447 316L315.5 274L346.5 400Z" fill="#055180" stroke="#000000"></path><path d="M641 205L547.5 173L546.5 329Z" fill="#044571" stroke="#000000"></path><path d="M546.5 329L547.5 173L474 170Z" fill="#026b9f" stroke="#000000"></path><path d="M432 516L567.5 427L455 369Z" fill="#01335a" stroke="#000000"></path><path d="M323.5 180L315.5 274L447 316Z" fill="#054b78" stroke="#000000"></path><path d="M361.5 484L432 516L455 369Z" fill="#0072a7" stroke="#000000"></path><path d="M689 396L546.5 329L567.5 427Z" fill="#0072a7" stroke="#000000"></path><path d="M711 304L641 205L546.5 329Z" fill="#055788" stroke="#000000"></path><path d="M346.5 400L361.5 484L455 369Z" fill="#0072a7" stroke="#000000"></path><path d="M248 432L361.5 484L346.5 400Z" fill="#054b78" stroke="#000000"></path><path d="M662 490L689 396L567.5 427Z" fill="#033f69" stroke="#000000"></path><path d="M689 396L711 304L546.5 329Z" fill="#045e90" stroke="#000000"></path><path d="M562.5 504L662 490L567.5 427Z" fill="#044571" stroke="#000000"></path><path d="M474 170L323.5 180L447 316Z" fill="#0072a7" stroke="#000000"></path><path d="M655 108L545.5 90L547.5 173Z" fill="#0072a7" stroke="#000000"></path><path d="M547.5 173L545.5 90L474 170Z" fill="#023961" stroke="#000000"></path><path d="M474 170L439 70L323.5 180Z" fill="#0072a7" stroke="#000000"></path><path d="M200 302L248 432L315.5 274Z" fill="#045e90" stroke="#000000"></path><path d="M315.5 274L248 432L346.5 400Z" fill="#055788" stroke="#000000"></path><path d="M545.5 90L439 70L474 170Z" fill="#0072a7" stroke="#000000"></path><path d="M322.5 600L432 516L361.5 484Z" fill="#055788" stroke="#000000"></path><path d="M322.5 600L429 600L432 516Z" fill="#044571" stroke="#000000"></path><path d="M432 516L565.5 600L562.5 504Z" fill="#054b78" stroke="#000000"></path><path d="M562.5 504L565.5 600L662 490Z" fill="#033f69" stroke="#000000"></path><path d="M429 600L565.5 600L432 516Z" fill="#036597" stroke="#000000"></path><path d="M641 205L655 108L547.5 173Z" fill="#036597" stroke="#000000"></path><path d="M545.5 90L544.5 0L439 70Z" fill="#026b9f" stroke="#000000"></path><path d="M822.5 181L655 108L641 205Z" fill="#055788" stroke="#000000"></path><path d="M778.5 520L759.5 431L662 490Z" fill="#036597" stroke="#000000"></path><path d="M662 490L759.5 431L689 396Z" fill="#023961" stroke="#000000"></path><path d="M689 396L802.5 322L711 304Z" fill="#023961" stroke="#000000"></path><path d="M711 304L822.5 181L641 205Z" fill="#055180" stroke="#000000"></path><path d="M248 432L248 479L361.5 484Z" fill="#0072a7" stroke="#000000"></path><path d="M195 202L200 302L315.5 274Z" fill="#055180" stroke="#000000"></path><path d="M248 432L118.5 487L248 479Z" fill="#036597" stroke="#000000"></path><path d="M439 70L324.5 87L323.5 180Z" fill="#026b9f" stroke="#000000"></path><path d="M323.5 180L195 202L315.5 274Z" fill="#044571" stroke="#000000"></path><path d="M759.5 431L802.5 322L689 396Z" fill="#033f69" stroke="#000000"></path><path d="M248 479L322.5 600L361.5 484Z" fill="#054b78" stroke="#000000"></path><path d="M235 83L195 202L323.5 180Z" fill="#0072a7" stroke="#000000"></path><path d="M706 600L778.5 520L662 490Z" fill="#0072a7" stroke="#000000"></path><path d="M759.5 431L900 385L802.5 322Z" fill="#055180" stroke="#000000"></path><path d="M565.5 600L706 600L662 490Z" fill="#055788" stroke="#000000"></path><path d="M655 108L544.5 0L545.5 90Z" fill="#054b78" stroke="#000000"></path><path d="M439 70L413 0L324.5 87Z" fill="#054b78" stroke="#000000"></path><path d="M544.5 0L413 0L439 70Z" fill="#055180" stroke="#000000"></path><path d="M324.5 87L235 83L323.5 180Z" fill="#026b9f" stroke="#000000"></path><path d="M900 282L822.5 181L802.5 322Z" fill="#023961" stroke="#000000"></path><path d="M802.5 322L822.5 181L711 304Z" fill="#0072a7" stroke="#000000"></path><path d="M655 108L684 0L544.5 0Z" fill="#044571" stroke="#000000"></path><path d="M321.5 0L235 83L324.5 87Z" fill="#033f69" stroke="#000000"></path><path d="M200 302L124.5 401L248 432Z" fill="#0072a7" stroke="#000000"></path><path d="M248 479L204 600L322.5 600Z" fill="#026b9f" stroke="#000000"></path><path d="M111.5 329L124.5 401L200 302Z" fill="#023961" stroke="#000000"></path><path d="M111.5 329L200 302L124.5 194Z" fill="#036597" stroke="#000000"></path><path d="M413 0L321.5 0L324.5 87Z" fill="#054b78" stroke="#000000"></path><path d="M124.5 194L200 302L195 202Z" fill="#0072a7" stroke="#000000"></path><path d="M809.5 108L684 0L655 108Z" fill="#0072a7" stroke="#000000"></path><path d="M822.5 181L809.5 108L655 108Z" fill="#033f69" stroke="#000000"></path><path d="M118.5 487L204 600L248 479Z" fill="#033f69" stroke="#000000"></path><path d="M706 600L790.5 600L778.5 520Z" fill="#0072a7" stroke="#000000"></path><path d="M900 525L900 385L759.5 431Z" fill="#036597" stroke="#000000"></path><path d="M116.5 134L124.5 194L195 202Z" fill="#055180" stroke="#000000"></path><path d="M0 423L118.5 487L124.5 401Z" fill="#01335a" stroke="#000000"></path><path d="M124.5 401L118.5 487L248 432Z" fill="#054b78" stroke="#000000"></path><path d="M900 525L759.5 431L778.5 520Z" fill="#054b78" stroke="#000000"></path><path d="M822.5 181L900 173L809.5 108Z" fill="#0072a7" stroke="#000000"></path><path d="M900 385L900 282L802.5 322Z" fill="#055180" stroke="#000000"></path><path d="M321.5 0L231 0L235 83Z" fill="#054b78" stroke="#000000"></path><path d="M235 83L116.5 134L195 202Z" fill="#054b78" stroke="#000000"></path><path d="M0 217L0 310L111.5 329Z" fill="#026b9f" stroke="#000000"></path><path d="M132.5 0L116.5 134L235 83Z" fill="#0072a7" stroke="#000000"></path><path d="M900 282L900 173L822.5 181Z" fill="#044571" stroke="#000000"></path><path d="M809.5 108L822.5 0L684 0Z" fill="#023961" stroke="#000000"></path><path d="M790.5 600L900 525L778.5 520Z" fill="#026b9f" stroke="#000000"></path><path d="M0 534L111.5 600L118.5 487Z" fill="#054b78" stroke="#000000"></path><path d="M118.5 487L111.5 600L204 600Z" fill="#01335a" stroke="#000000"></path><path d="M900 76L822.5 0L809.5 108Z" fill="#054b78" stroke="#000000"></path><path d="M900 173L900 76L809.5 108Z" fill="#055788" stroke="#000000"></path><path d="M790.5 600L900 600L900 525Z" fill="#033f69" stroke="#000000"></path><path d="M231 0L132.5 0L235 83Z" fill="#055180" stroke="#000000"></path><path d="M0 217L124.5 194L116.5 134Z" fill="#045e90" stroke="#000000"></path><path d="M0 217L111.5 329L124.5 194Z" fill="#033f69" stroke="#000000"></path><path d="M111.5 329L0 423L124.5 401Z" fill="#023961" stroke="#000000"></path><path d="M0 310L0 423L111.5 329Z" fill="#055788" stroke="#000000"></path><path d="M0 128L0 217L116.5 134Z" fill="#023961" stroke="#000000"></path><path d="M900 76L900 0L822.5 0Z" fill="#055788" stroke="#000000"></path><path d="M0 423L0 534L118.5 487Z" fill="#01335a" stroke="#000000"></path><path d="M0 0L0 128L116.5 134Z" fill="#0072a7" stroke="#000000"></path><path d="M0 534L0 600L111.5 600Z" fill="#036597" stroke="#000000"></path><path d="M132.5 0L0 0L116.5 134Z" fill="#01335a" stroke="#000000"></path></g></svg>